<svg width="21" height="21" viewBox="0 0 21 21" fill="none" xmlns="http://www.w3.org/2000/svg">
<rect x="1" y="1" width="19" height="19" rx="9.5" fill="white"/>
<rect x="1" y="1" width="19" height="19" rx="9.5" stroke="white"/>
<path d="M4.66667 19.5C4.66667 19.5 3.5 19.5 3.5 18.3333C3.5 17.1667 4.66667 13.6667 10.5 13.6667C16.3333 13.6667 17.5 17.1667 17.5 18.3333C17.5 19.5 16.3333 19.5 16.3333 19.5H4.66667Z" fill="#1A1B1F"/>
<path d="M10.5 12.5C12.433 12.5 14 10.933 14 9C14 7.067 12.433 5.5 10.5 5.5C8.567 5.5 7 7.067 7 9C7 10.933 8.567 12.5 10.5 12.5Z" fill="#1A1B1F"/>
</svg>
