<svg width="21" height="21" viewBox="0 0 21 21" fill="none" xmlns="http://www.w3.org/2000/svg">
<path d="M11.3839 2.37491C10.8957 1.88675 10.1043 1.88675 9.61612 2.37491L1.30806 10.683C1.06398 10.927 1.06398 11.3228 1.30806 11.5668C1.55214 11.8109 1.94786 11.8109 2.19194 11.5668L3 10.7588V17.3749C3 18.4104 3.83947 19.2499 4.875 19.2499H16.125C17.1605 19.2499 18 18.4104 18 17.3749V10.7588L18.8081 11.5668C19.0521 11.8109 19.4479 11.8109 19.6919 11.5668C19.936 11.3228 19.936 10.927 19.6919 10.683L16.75 7.74102V3.62491C16.75 3.27973 16.4702 2.99991 16.125 2.99991H14.875C14.5298 2.99991 14.25 3.27973 14.25 3.62491V5.24102L11.3839 2.37491ZM16.75 9.50879V17.3749C16.75 17.7201 16.4702 17.9999 16.125 17.9999H4.875C4.52982 17.9999 4.25 17.7201 4.25 17.3749V9.50879L10.5 3.25879L16.75 9.50879Z" fill="white"/>
</svg>
