<svg width="21" height="21" viewBox="0 0 21 21" fill="none" xmlns="http://www.w3.org/2000/svg">
<path d="M10.875 20C12.1176 20 13.125 18.9926 13.125 17.75H8.625C8.625 18.9926 9.63236 20 10.875 20Z" fill="white"/>
<path d="M10.875 4.15803L9.97816 4.33916C7.92246 4.75433 6.37503 6.57271 6.37503 8.75C6.37503 9.4563 6.22386 11.2219 5.8588 12.9599C5.67757 13.8227 5.43511 14.7211 5.11286 15.5H16.6372C16.3149 14.7211 16.0724 13.8227 15.8912 12.9599C15.5262 11.2219 15.375 9.4563 15.375 8.75C15.375 6.57269 13.8276 4.7543 11.7719 4.33915L10.875 4.15803ZM17.8717 15.5C18.1229 16.0033 18.4142 16.4011 18.75 16.625H3C3.33584 16.4011 3.62713 16.0033 3.87829 15.5C4.88912 13.4743 5.25003 9.73906 5.25003 8.75C5.25003 6.02676 7.18523 3.7555 9.75545 3.23642C9.75184 3.19977 9.75 3.1626 9.75 3.125C9.75 2.50368 10.2537 2 10.875 2C11.4963 2 12 2.50368 12 3.125C12 3.1626 11.9982 3.19976 11.9946 3.23641C14.5648 3.75548 16.5 6.02674 16.5 8.75C16.5 9.73906 16.8609 13.4743 17.8717 15.5Z" fill="white"/>
</svg>
