<svg width="20" height="21" viewBox="0 0 20 21" fill="none" xmlns="http://www.w3.org/2000/svg">
<path d="M20 10.5C20 16.0228 15.5228 20.5 10 20.5C4.47715 20.5 0 16.0228 0 10.5C0 4.97715 4.47715 0.5 10 0.5C15.5228 0.5 20 4.97715 20 10.5ZM15.0379 6.71209C14.6718 6.34597 14.0782 6.34597 13.7121 6.71209C13.7032 6.72093 13.6949 6.73029 13.6872 6.74013L9.34674 12.2709L6.72985 9.65403C6.36373 9.28791 5.77014 9.28791 5.40402 9.65403C5.0379 10.0201 5.0379 10.6137 5.40402 10.9799L8.71208 14.2879C9.0782 14.654 9.67179 14.654 10.0379 14.2879C10.0461 14.2798 10.0538 14.2712 10.061 14.2622L15.0512 8.02434C15.404 7.65727 15.3995 7.07371 15.0379 6.71209Z" fill="#458EF6"/>
</svg>
