<svg width="24" height="24" viewBox="0 0 24 24" fill="none" xmlns="http://www.w3.org/2000/svg">
<path d="M20.25 1.5C19.0074 1.5 18 2.50736 18 3.75C18 4.99264 19.0074 6 20.25 6C21.4926 6 22.5 4.99264 22.5 3.75C22.5 2.50736 21.4926 1.5 20.25 1.5ZM16.5 3.75C16.5 1.67893 18.1789 0 20.25 0C22.3211 0 24 1.67893 24 3.75C24 5.82107 22.3211 7.5 20.25 7.5C19.1116 7.5 18.0917 6.99273 17.4039 6.19189L7.32748 10.8723C7.43956 11.2282 7.5 11.6071 7.5 12C7.5 12.3929 7.43956 12.7718 7.32748 13.1277L17.4039 17.8081C18.0917 17.0073 19.1116 16.5 20.25 16.5C22.3211 16.5 24 18.1789 24 20.25C24 22.3211 22.3211 24 20.25 24C18.1789 24 16.5 22.3211 16.5 20.25C16.5 19.8571 16.5604 19.4782 16.6725 19.1223L6.59608 14.4419C5.90834 15.2427 4.88841 15.75 3.75 15.75C1.67893 15.75 0 14.0711 0 12C0 9.92893 1.67893 8.25 3.75 8.25C4.88841 8.25 5.90834 8.75727 6.59608 9.55811L16.6725 4.8777C16.5604 4.52177 16.5 4.14294 16.5 3.75ZM3.75 9.75C2.50736 9.75 1.5 10.7574 1.5 12C1.5 13.2426 2.50736 14.25 3.75 14.25C4.99264 14.25 6 13.2426 6 12C6 10.7574 4.99264 9.75 3.75 9.75ZM20.25 18C19.0074 18 18 19.0074 18 20.25C18 21.4926 19.0074 22.5 20.25 22.5C21.4926 22.5 22.5 21.4926 22.5 20.25C22.5 19.0074 21.4926 18 20.25 18Z" fill="#1B1B1B"/>
</svg>
