<svg width="32" height="32" viewBox="0 0 32 32" fill="none" xmlns="http://www.w3.org/2000/svg">
<path d="M22.1875 8.125C21.2555 8.125 20.5 8.88052 20.5 9.8125C20.5 10.7445 21.2555 11.5 22.1875 11.5C23.1195 11.5 23.875 10.7445 23.875 9.8125C23.875 8.88052 23.1195 8.125 22.1875 8.125ZM19.375 9.8125C19.375 8.2592 20.6342 7 22.1875 7C23.7408 7 25 8.2592 25 9.8125C25 11.3658 23.7408 12.625 22.1875 12.625C21.3337 12.625 20.5687 12.2445 20.0529 11.6439L12.4956 15.1542C12.5797 15.4212 12.625 15.7053 12.625 16C12.625 16.2947 12.5797 16.5788 12.4956 16.8458L20.0529 20.3561C20.5687 19.7555 21.3337 19.375 22.1875 19.375C23.7408 19.375 25 20.6342 25 22.1875C25 23.7408 23.7408 25 22.1875 25C20.6342 25 19.375 23.7408 19.375 22.1875C19.375 21.8928 19.4203 21.6087 19.5044 21.3417L11.9471 17.8314C11.4313 18.432 10.6663 18.8125 9.8125 18.8125C8.2592 18.8125 7 17.5533 7 16C7 14.4467 8.2592 13.1875 9.8125 13.1875C10.6663 13.1875 11.4313 13.568 11.9471 14.1686L19.5044 10.6583C19.4203 10.3913 19.375 10.1072 19.375 9.8125ZM9.8125 14.3125C8.88052 14.3125 8.125 15.068 8.125 16C8.125 16.932 8.88052 17.6875 9.8125 17.6875C10.7445 17.6875 11.5 16.932 11.5 16C11.5 15.068 10.7445 14.3125 9.8125 14.3125ZM22.1875 20.5C21.2555 20.5 20.5 21.2555 20.5 22.1875C20.5 23.1195 21.2555 23.875 22.1875 23.875C23.1195 23.875 23.875 23.1195 23.875 22.1875C23.875 21.2555 23.1195 20.5 22.1875 20.5Z" fill="#1B1B1B"/>
</svg>
