<svg width="20" height="21" viewBox="0 0 20 21" fill="none" xmlns="http://www.w3.org/2000/svg">
<rect y="0.5" width="20" height="20" rx="10" fill="#458EF6"/>
<path d="M10 16.3337C10.789 16.3337 11.4286 15.6807 11.4286 14.8753H8.57143C8.57143 15.6807 9.21102 16.3337 10 16.3337Z" fill="white"/>
<path d="M10 6.06572L9.43058 6.18311C8.12537 6.4522 7.14287 7.63078 7.14287 9.04199C7.14287 9.49978 7.0469 10.6442 6.81511 11.7707C6.70005 12.3299 6.5461 12.9121 6.3415 13.417H13.6585C13.4539 12.9121 13.3 12.3299 13.1849 11.7706C12.9531 10.6441 12.8572 9.49978 12.8572 9.04199C12.8572 7.63078 11.8746 6.45219 10.5694 6.18311L10 6.06572ZM14.4424 13.417C14.6018 13.7432 14.7868 14.001 15 14.1462H5C5.21323 14.001 5.39818 13.7432 5.55764 13.417C6.19944 12.104 6.42859 9.68305 6.42859 9.04199C6.42859 7.27693 7.65729 5.80482 9.28917 5.46838C9.28689 5.44462 9.28571 5.42053 9.28571 5.39616C9.28571 4.99345 9.60551 4.66699 10 4.66699C10.3945 4.66699 10.7143 4.99345 10.7143 5.39616C10.7143 5.42053 10.7131 5.44462 10.7108 5.46837C12.3427 5.8048 13.5714 7.27692 13.5714 9.04199C13.5714 9.68305 13.8006 12.104 14.4424 13.417Z" fill="white"/>
</svg>
