<svg width="47" height="40" viewBox="0 0 47 40" fill="none" xmlns="http://www.w3.org/2000/svg">
<g clip-path="url(#clip0_32_192)">
<path d="M21.707 39.498C19.649 39.498 17.637 38.886 15.925 37.742C14.214 36.598 12.88 34.972 12.092 33.071C11.305 31.169 11.099 29.076 11.501 27.057C11.903 25.037 12.894 23.183 14.35 21.727C15.806 20.272 17.66 19.281 19.68 18.879C21.698 18.478 23.791 18.684 25.693 19.472C27.595 20.26 29.22 21.594 30.364 23.306C31.508 25.017 32.118 27.03 32.118 29.088C32.115 31.848 31.018 34.495 29.066 36.446C27.114 38.398 24.467 39.496 21.707 39.498ZM21.707 21.568C20.22 21.568 18.767 22.009 17.529 22.836C16.293 23.662 15.329 24.836 14.759 26.211C14.19 27.585 14.042 29.097 14.332 30.556C14.622 32.014 15.338 33.354 16.39 34.406C17.442 35.458 18.782 36.174 20.24 36.464C21.7 36.754 23.211 36.606 24.585 36.036C25.96 35.467 27.135 34.503 27.96 33.266C28.787 32.03 29.228 30.576 29.228 29.089C29.226 27.095 28.433 25.183 27.023 23.773C25.613 22.363 23.701 21.57 21.707 21.568ZM21.708 16.71C20.124 16.71 18.576 16.24 17.259 15.36C15.943 14.48 14.916 13.23 14.31 11.767C13.704 10.304 13.546 8.694 13.854 7.141C14.164 5.588 14.926 4.161 16.046 3.041C17.166 1.921 18.592 1.159 20.146 0.85C21.699 0.54 23.309 0.699999 24.772 1.305C26.235 1.911 27.485 2.938 28.365 4.255C29.245 5.571 29.715 7.119 29.715 8.703C29.712 10.826 28.868 12.861 27.367 14.362C25.866 15.863 23.831 16.707 21.708 16.71ZM21.708 3.586C20.696 3.586 19.706 3.886 18.865 4.449C18.024 5.011 17.368 5.81 16.981 6.745C16.593 7.68 16.492 8.709 16.689 9.701C16.887 10.693 17.374 11.605 18.089 12.321C18.805 13.036 19.717 13.524 20.709 13.721C21.702 13.918 22.731 13.817 23.666 13.43C24.6 13.043 25.399 12.387 25.962 11.545C26.524 10.704 26.824 9.715 26.824 8.703C26.822 7.346 26.283 6.046 25.324 5.087C24.364 4.127 23.064 3.586 21.708 3.586ZM46.778 15.876H35.6V1.308H38.49V12.986H46.777L46.778 15.876ZM3.838 34.216C3.838 34.596 3.726 34.966 3.515 35.282C3.305 35.598 3.005 35.844 2.654 35.989C2.304 36.134 1.918 36.172 1.545 36.099C1.173 36.025 0.831005 35.842 0.563005 35.574C0.294005 35.306 0.111005 34.964 0.0370045 34.592C-0.0369955 34.219 0.00100453 33.834 0.146005 33.482C0.291005 33.132 0.536005 32.832 0.852005 32.622C1.167 32.41 1.538 32.297 1.917 32.297C2.169 32.297 2.419 32.347 2.652 32.443C2.885 32.539 3.097 32.68 3.275 32.859C3.453 33.037 3.595 33.249 3.691 33.481C3.787 33.714 3.837 33.964 3.836 34.216" fill="white"/>
</g>
<defs>
<clipPath id="clip0_32_192">
<rect width="47" height="40" fill="white"/>
</clipPath>
</defs>
</svg>
