<svg width="40" height="40" viewBox="0 0 40 40" fill="none" xmlns="http://www.w3.org/2000/svg">
<path d="M20 31.25C21.5533 31.25 22.8125 29.9908 22.8125 28.4375H17.1875C17.1875 29.9908 18.4467 31.25 20 31.25Z" fill="white"/>
<path d="M20 11.4475L18.8789 11.6739C16.3093 12.1929 14.375 14.4659 14.375 17.1875C14.375 18.0704 14.1861 20.2774 13.7297 22.4499C13.5032 23.5284 13.2001 24.6514 12.7973 25.625H27.2027C26.7999 24.6513 26.4968 23.5284 26.2703 22.4499C25.814 20.2774 25.625 18.0704 25.625 17.1875C25.625 14.4659 23.6907 12.1929 21.1211 11.6739L20 11.4475ZM28.7459 25.625C29.0598 26.2542 29.4239 26.7514 29.8438 27.0312H10.1562C10.5761 26.7514 10.9402 26.2542 11.2541 25.625C12.5177 23.0929 12.9688 18.4238 12.9688 17.1875C12.9688 13.7834 15.3878 10.9444 18.6006 10.2955C18.5961 10.2497 18.5938 10.2033 18.5938 10.1562C18.5938 9.3796 19.2233 8.75 20 8.75C20.7767 8.75 21.4062 9.3796 21.4062 10.1562C21.4062 10.2032 21.4039 10.2497 21.3994 10.2955C24.6122 10.9443 27.0313 13.7834 27.0313 17.1875C27.0313 18.4238 27.4824 23.0929 28.7459 25.625Z" fill="white"/>
</svg>
