<svg width="80" height="69" viewBox="0 0 80 69" fill="none" xmlns="http://www.w3.org/2000/svg">
<g clip-path="url(#clip0_32_3139)">
<path d="M36.9478 67.6468C33.4449 67.6468 30.0202 66.6064 27.1061 64.6616C24.1938 62.7168 21.9232 59.9526 20.5819 56.7209C19.2423 53.4875 18.8917 49.9294 19.5759 46.4971C20.2602 43.0631 21.947 39.9113 24.4253 37.4361C26.9036 34.9626 30.0593 33.2779 33.4976 32.5945C36.9325 31.9128 40.4951 32.263 43.7325 33.6026C46.97 34.9422 49.7359 37.21 51.6831 40.1204C53.6304 43.0291 54.6687 46.4512 54.6687 49.9498C54.6636 54.6418 52.7963 59.1417 49.4738 62.4584C46.1512 65.7768 41.6457 67.6434 36.9478 67.6468ZM36.9478 37.1658C34.4168 37.1658 31.9436 37.9155 29.8363 39.3214C27.7325 40.7256 26.0917 42.7214 25.1214 45.0589C24.1529 47.3947 23.901 49.9651 24.3946 52.4454C24.8883 54.924 26.107 57.202 27.8976 58.9904C29.6883 60.7788 31.9691 61.996 34.4508 62.489C36.9359 62.982 39.5078 62.7304 41.8465 61.7614C44.187 60.7941 46.187 59.1553 47.5912 57.0524C48.9989 54.9512 49.7495 52.4794 49.7495 49.9515C49.7461 46.5617 48.3963 43.3113 45.9963 40.9143C43.5963 38.5173 40.3419 37.1692 36.9478 37.1658ZM36.9495 28.9072C34.2534 28.9072 31.6185 28.1082 29.3768 26.6122C27.1368 25.1162 25.3887 22.9912 24.3572 20.5041C23.3257 18.017 23.0568 15.28 23.581 12.6399C24.1087 9.99976 25.4057 7.57386 27.3121 5.66986C29.2185 3.76586 31.6457 2.47046 34.2908 1.94516C36.9342 1.41816 39.6746 1.69016 42.1648 2.71866C44.6551 3.74886 46.7827 5.49476 48.2806 7.73366C49.7785 9.97086 50.5785 12.6025 50.5785 15.2953C50.5734 18.9044 49.1368 22.3639 46.5819 24.9156C44.027 27.4673 40.5631 28.9021 36.9495 28.9072ZM36.9495 6.59636C35.227 6.59636 33.5419 7.10636 32.1104 8.06346C30.6789 9.01886 29.5623 10.3772 28.9036 11.9667C28.2432 13.5562 28.0712 15.3055 28.4066 16.9919C28.7436 18.6783 29.5725 20.2287 30.7895 21.4459C32.0083 22.6614 33.5606 23.491 35.2491 23.8259C36.9393 24.1608 38.6908 23.9891 40.2823 23.3312C41.8721 22.6733 43.2321 21.5581 44.1904 20.1267C45.147 18.697 45.6576 17.0157 45.6576 15.2953C45.6542 12.9884 44.7368 10.7784 43.1044 9.14806C41.4704 7.51606 39.2576 6.59636 36.9495 6.59636ZM79.6219 27.4894H60.5955V2.72376H65.5146V22.5764H79.6202L79.6219 27.4894ZM6.53251 58.6674C6.53251 59.3134 6.34188 59.9424 5.98273 60.4796C5.62528 61.0168 5.11464 61.435 4.51719 61.6815C3.92145 61.928 3.26443 61.9926 2.62953 61.8685C1.99634 61.7427 1.41422 61.4316 0.958046 60.976C0.500174 60.5204 0.188684 59.939 0.0627267 59.3066C-0.0632307 58.6725 0.00145012 58.018 0.248259 57.4196C0.495067 56.8246 0.912088 56.3146 1.44996 55.9576C1.98613 55.5972 2.61762 55.4051 3.26273 55.4051C3.69166 55.4051 4.11719 55.4901 4.51379 55.6533C4.91039 55.8165 5.27124 56.0562 5.57422 56.3605C5.87719 56.6631 6.1189 57.0235 6.2823 57.4179C6.4457 57.814 6.53081 58.239 6.52911 58.6674" fill="#1A1B1F"/>
</g>
<defs>
<clipPath id="clip0_32_3139">
<rect width="80" height="68" fill="white" transform="translate(0 0.5)"/>
</clipPath>
</defs>
</svg>
