<svg width="48" height="49" viewBox="0 0 48 49" fill="none" xmlns="http://www.w3.org/2000/svg">
<path d="M24 48.5C37.2548 48.5 48 37.7548 48 24.5C48 11.2452 37.2548 0.5 24 0.5C10.7452 0.5 0 11.2452 0 24.5C0 37.7548 10.7452 48.5 24 48.5Z" fill="black"/>
<path d="M24.2496 17.4104C25.1808 17.4104 26.3496 16.7624 27.0456 15.896C27.6744 15.1112 28.134 14.0156 28.134 12.92C28.134 12.77 28.122 12.6212 28.0956 12.5C27.0576 12.5408 25.8108 13.2164 25.0632 14.1236C24.4728 14.8136 23.9352 15.896 23.9352 17.0048C23.9352 17.1668 23.9604 17.3288 23.9736 17.384C24.0396 17.3972 24.144 17.4104 24.2496 17.4104ZM20.9676 33.7796C22.2408 33.7796 22.806 32.9012 24.3936 32.9012C26.0076 32.9012 26.3616 33.7532 27.78 33.7532C29.172 33.7532 30.1032 32.4272 30.9828 31.1288C31.9668 29.6408 32.3748 28.1792 32.4 28.112C32.3076 28.0844 29.6436 26.9612 29.6436 23.81C29.6436 21.0764 31.7436 19.8464 31.8624 19.7516C30.4704 17.6948 28.3584 17.6408 27.78 17.6408C26.2176 17.6408 24.9456 18.6152 24.144 18.6152C23.2776 18.6152 22.1364 17.6948 20.784 17.6948C18.2124 17.6948 15.6 19.886 15.6 24.026C15.6 26.5964 16.572 29.3156 17.766 31.0748C18.7896 32.5628 19.6824 33.7796 20.9676 33.7796Z" fill="white"/>
</svg>
