<svg width="48" height="49" viewBox="0 0 48 49" fill="none" xmlns="http://www.w3.org/2000/svg">
<path d="M24 48.5C37.2548 48.5 48 37.7548 48 24.5C48 11.2452 37.2548 0.5 24 0.5C10.7452 0.5 0 11.2452 0 24.5C0 37.7548 10.7452 48.5 24 48.5Z" fill="#1877F2"/>
<path d="M26.8284 17.2868H28.8V13.8524C28.4604 13.8044 27.2904 13.7 25.9272 13.7C19.6896 13.7 21.3864 20.7644 21.138 21.8H18V25.6388H21.1368V35.2988H24.984V25.6388H27.9936L28.4712 21.8H24.984C25.152 19.2584 24.2988 17.2868 26.8284 17.2868Z" fill="white"/>
</svg>
