<svg width="32" height="32" viewBox="0 0 32 32" fill="none" xmlns="http://www.w3.org/2000/svg">
<path d="M16 12.3485C13.9834 12.3485 12.3486 13.9833 12.3486 16C12.3486 18.0166 13.9834 19.6515 16 19.6515C18.0167 19.6515 19.6515 18.0166 19.6515 16C19.6515 13.9833 18.0167 12.3485 16 12.3485ZM13.4736 16C13.4736 14.6046 14.6047 13.4735 16 13.4735C17.3954 13.4735 18.5265 14.6046 18.5265 16C18.5265 17.3953 17.3954 18.5265 16 18.5265C14.6047 18.5265 13.4736 17.3953 13.4736 16Z" fill="white"/>
<path d="M18.021 8.5113C17.4271 6.49623 14.5729 6.49623 13.979 8.5113L13.8734 8.86952C13.6965 9.46959 13.0111 9.75349 12.4617 9.45424L12.1338 9.27561C10.2889 8.27072 8.27072 10.2889 9.27561 12.1338L9.45424 12.4617C9.75349 13.0111 9.46959 13.6965 8.86952 13.8734L8.5113 13.979C6.49623 14.5729 6.49623 17.4271 8.5113 18.021L8.86952 18.1266C9.46959 18.3035 9.75349 18.9889 9.45424 19.5383L9.27561 19.8662C8.27072 21.7111 10.2889 23.7293 12.1338 22.7244L12.4617 22.5458C13.0111 22.2465 13.6965 22.5304 13.8734 23.1305L13.979 23.4887C14.5729 25.5038 17.4271 25.5038 18.021 23.4887L18.1266 23.1305C18.3035 22.5304 18.9889 22.2465 19.5383 22.5458L19.8662 22.7244C21.7111 23.7293 23.7293 21.7111 22.7244 19.8662L22.5458 19.5383C22.2465 18.9889 22.5304 18.3035 23.1305 18.1266L23.4887 18.021C25.5038 17.4271 25.5038 14.5729 23.4887 13.979L23.1305 13.8734C22.5304 13.6965 22.2465 13.0111 22.5458 12.4617L22.7244 12.1338C23.7293 10.2889 21.7111 8.27072 19.8662 9.27561L19.5383 9.45424C18.9889 9.75349 18.3035 9.46959 18.1266 8.86952L18.021 8.5113ZM15.0581 8.82936C15.3349 7.89021 16.6651 7.89021 16.9419 8.82936L17.0475 9.18758C17.427 10.4751 18.8976 11.0843 20.0764 10.4422L20.4044 10.2636C21.2642 9.79521 22.2048 10.7358 21.7364 11.5956L21.5578 11.9236C20.9157 13.1024 21.5249 14.573 22.8124 14.9525L23.1706 15.0581C24.1098 15.3349 24.1098 16.6651 23.1706 16.9419L22.8124 17.0475C21.5249 17.427 20.9157 18.8976 21.5578 20.0764L21.7364 20.4044C22.2048 21.2642 21.2642 22.2048 20.4044 21.7365L20.0764 21.5578C18.8976 20.9157 17.427 21.5249 17.0475 22.8124L16.9419 23.1706C16.6651 24.1098 15.3349 24.1098 15.0581 23.1706L14.9525 22.8124C14.573 21.5249 13.1024 20.9157 11.9236 21.5578L11.5956 21.7365C10.7358 22.2048 9.79521 21.2642 10.2636 20.4044L10.4422 20.0764C11.0843 18.8976 10.4751 17.427 9.18758 17.0475L8.82936 16.9419C7.89021 16.6651 7.89021 15.3349 8.82936 15.0581L9.18758 14.9525C10.4751 14.573 11.0843 13.1024 10.4422 11.9236L10.2636 11.5956C9.79521 10.7358 10.7358 9.79521 11.5956 10.2636L11.9236 10.4422C13.1024 11.0843 14.573 10.4751 14.9525 9.18758L15.0581 8.82936Z" fill="white"/>
</svg>
