<svg width="40" height="40" viewBox="0 0 40 40" fill="none" xmlns="http://www.w3.org/2000/svg">
<rect width="40" height="40" rx="20" fill="#1A1B1F"/>
<g clip-path="url(#clip0_32_574)">
<path d="M19.1789 28.9991C18.2358 28.9991 17.3138 28.7166 16.5293 28.1886C15.7452 27.6606 15.1338 26.9101 14.7727 26.0328C14.4121 25.1549 14.3177 24.1889 14.5019 23.2571C14.6861 22.3248 15.1402 21.4691 15.8075 20.7971C16.4747 20.1255 17.3243 19.6681 18.25 19.4826C19.1748 19.2975 20.134 19.3926 21.0056 19.7563C21.8772 20.12 22.6219 20.7357 23.1461 21.5258C23.6704 22.3155 23.9499 23.2446 23.9499 24.1945C23.9486 25.4683 23.4458 26.69 22.5513 27.5905C21.6568 28.4914 20.4438 28.9981 19.1789 28.9991ZM19.1789 20.7237C18.4975 20.7237 17.8316 20.9272 17.2643 21.3089C16.6979 21.6901 16.2561 22.232 15.9949 22.8666C15.7342 23.5008 15.6663 24.1986 15.7992 24.872C15.9321 25.5449 16.2602 26.1634 16.7423 26.6489C17.2244 27.1345 17.8385 27.4649 18.5067 27.5988C19.1757 27.7326 19.8682 27.6643 20.4978 27.4012C21.1279 27.1386 21.6664 26.6937 22.0445 26.1228C22.4235 25.5523 22.6256 24.8812 22.6256 24.1949C22.6246 23.2746 22.2612 22.3921 21.6151 21.7414C20.9689 21.0906 20.0927 20.7246 19.1789 20.7237ZM19.1794 18.4815C18.4535 18.4815 17.7441 18.2646 17.1406 17.8585C16.5375 17.4523 16.0669 16.8754 15.7892 16.2001C15.5114 15.5249 15.439 14.7818 15.5802 14.0651C15.7222 13.3483 16.0714 12.6897 16.5847 12.1728C17.098 11.6558 17.7514 11.3041 18.4636 11.1615C19.1753 11.0185 19.9131 11.0923 20.5835 11.3715C21.254 11.6512 21.8268 12.1252 22.2301 12.7331C22.6333 13.3405 22.8487 14.0549 22.8487 14.786C22.8474 15.7658 22.4606 16.7051 21.7727 17.3978C21.0849 18.0906 20.1523 18.4801 19.1794 18.4815ZM19.1794 12.4243C18.7156 12.4243 18.262 12.5628 17.8765 12.8226C17.4911 13.082 17.1905 13.4508 17.0132 13.8823C16.8354 14.3138 16.7891 14.7888 16.8794 15.2466C16.9701 15.7045 17.1933 16.1254 17.5209 16.4558C17.8491 16.7858 18.267 17.0111 18.7216 17.102C19.1766 17.1929 19.6482 17.1463 20.0767 16.9677C20.5047 16.7891 20.8709 16.4863 21.1289 16.0977C21.3864 15.7095 21.5239 15.2531 21.5239 14.786C21.523 14.1597 21.276 13.5597 20.8365 13.1171C20.3965 12.674 19.8008 12.4243 19.1794 12.4243ZM30.6681 18.0966H25.5456V11.3729H26.87V16.7628H30.6676L30.6681 18.0966ZM10.9902 26.5612C10.9902 26.7366 10.9389 26.9074 10.8422 27.0532C10.7459 27.1991 10.6085 27.3126 10.4476 27.3795C10.2872 27.4465 10.1103 27.464 9.9394 27.4303C9.76892 27.3961 9.6122 27.3117 9.48938 27.188C9.36611 27.0643 9.28224 26.9065 9.24833 26.7348C9.21442 26.5626 9.23184 26.3849 9.29828 26.2225C9.36473 26.0609 9.47701 25.9225 9.62182 25.8255C9.76617 25.7277 9.93619 25.6755 10.1099 25.6755C10.2254 25.6755 10.3399 25.6986 10.4467 25.7429C10.5535 25.7872 10.6506 25.8523 10.7322 25.9349C10.8138 26.0171 10.8788 26.1149 10.9228 26.222C10.9668 26.3295 10.9897 26.4449 10.9893 26.5612" fill="white"/>
</g>
<defs>
<clipPath id="clip0_32_574">
<rect width="21.5385" height="18.4615" fill="white" transform="translate(9.23096 10.7692)"/>
</clipPath>
</defs>
</svg>
