<svg width="20" height="21" viewBox="0 0 20 21" fill="none" xmlns="http://www.w3.org/2000/svg">
<path d="M10 5.50012C10.3452 5.50012 10.625 5.77994 10.625 6.12512V9.87512H14.375C14.7202 9.87512 15 10.1549 15 10.5001C15 10.8453 14.7202 11.1251 14.375 11.1251H10.625V14.8751C10.625 15.2203 10.3452 15.5001 10 15.5001C9.65482 15.5001 9.375 15.2203 9.375 14.8751V11.1251H5.625C5.27982 11.1251 5 10.8453 5 10.5001C5 10.1549 5.27982 9.87512 5.625 9.87512H9.375V6.12512C9.375 5.77994 9.65482 5.50012 10 5.50012Z" fill="#999999"/>
</svg>
