<svg width="35" height="35" viewBox="0 0 35 35" fill="none" xmlns="http://www.w3.org/2000/svg">
<rect x="0.5" y="0.5" width="34" height="34" rx="3.5" fill="#1A1B1F"/>
<rect x="0.5" y="0.5" width="34" height="34" rx="3.5" stroke="black"/>
<path fill-rule="evenodd" clip-rule="evenodd" d="M27.5 17.5C27.5 23.0228 23.0228 27.5 17.5 27.5C11.9772 27.5 7.5 23.0228 7.5 17.5C7.5 11.9772 11.9772 7.5 17.5 7.5C23.0228 7.5 27.5 11.9772 27.5 17.5ZM13.1032 20.8924C13.1032 20.9788 13.0777 21.0633 13.0297 21.1352C12.9818 21.207 12.9136 21.2631 12.8338 21.2962C12.754 21.3293 12.6662 21.338 12.5814 21.3212C12.4966 21.3044 12.4188 21.2629 12.3576 21.2018C12.2965 21.1407 12.2549 21.0629 12.238 20.9781C12.2211 20.8934 12.2297 20.8056 12.2628 20.7257C12.2958 20.6459 12.3518 20.5776 12.4237 20.5296C12.4955 20.4816 12.58 20.456 12.6664 20.456C12.7821 20.456 12.8932 20.5019 12.9751 20.5838C13.057 20.6656 13.1031 20.7766 13.1032 20.8924ZM15.8552 21.6949C16.2447 21.9552 16.7027 22.0941 17.1712 22.0941C17.7992 22.0935 18.4013 21.8438 18.8454 21.3998C19.2895 20.9557 19.5393 20.3537 19.54 19.7257C19.5401 19.2572 19.4013 18.7992 19.141 18.4096C18.8808 18.02 18.5108 17.7163 18.078 17.537C17.6452 17.3576 17.1689 17.3106 16.7094 17.402C16.2498 17.4933 15.8277 17.7189 15.4964 18.0502C15.1651 18.3815 14.9394 18.8035 14.848 19.263C14.7565 19.7226 14.8034 20.1989 14.9827 20.6317C15.162 21.0646 15.4656 21.4346 15.8552 21.6949ZM16.2207 18.3027C16.502 18.1146 16.8328 18.0142 17.1712 18.0141C17.625 18.0145 18.06 18.195 18.3809 18.5158C18.7018 18.8366 18.8823 19.2716 18.8828 19.7253C18.8828 20.0637 18.7825 20.3946 18.5945 20.676C18.4065 20.9574 18.1392 21.1767 17.8266 21.3062C17.5139 21.4358 17.1699 21.4697 16.8379 21.4037C16.506 21.3377 16.2011 21.1747 15.9618 20.9355C15.7224 20.6962 15.5594 20.3913 15.4934 20.0594C15.4273 19.7275 15.4611 19.3834 15.5906 19.0708C15.72 18.7581 15.9393 18.4908 16.2207 18.3027ZM17.1713 16.9093C16.811 16.9093 16.4587 16.8024 16.1591 16.6022C15.8594 16.402 15.6259 16.1175 15.488 15.7845C15.3501 15.4516 15.314 15.0853 15.3843 14.7318C15.4546 14.3784 15.6281 14.0538 15.883 13.7989C16.1378 13.5441 16.4624 13.3706 16.8159 13.3003C17.1693 13.23 17.5356 13.2661 17.8686 13.404C18.2015 13.5419 18.486 13.7754 18.6862 14.075C18.8865 14.3747 18.9933 14.7269 18.9933 15.0873C18.9929 15.5704 18.8008 16.0336 18.4592 16.3752C18.1176 16.7168 17.6544 16.9089 17.1713 16.9093ZM17.1713 13.9229C16.941 13.9229 16.7159 13.9912 16.5244 14.1191C16.3329 14.2471 16.1837 14.4289 16.0955 14.6417C16.0074 14.8545 15.9844 15.0886 16.0293 15.3145C16.0742 15.5403 16.1851 15.7478 16.348 15.9106C16.5108 16.0735 16.7183 16.1844 16.9441 16.2293C17.17 16.2742 17.4041 16.2512 17.6169 16.1631C17.8297 16.0749 18.0115 15.9257 18.1395 15.7342C18.2674 15.5427 18.3357 15.3176 18.3357 15.0873C18.3354 14.7786 18.2126 14.4826 17.9943 14.2643C17.776 14.046 17.48 13.9232 17.1713 13.9229ZM20.3309 16.7188H22.8741V16.0612H20.9885V13.404H20.3309V16.7188Z" fill="white"/>
</svg>
