<svg width="35" height="35" viewBox="0 0 35 35" fill="none" xmlns="http://www.w3.org/2000/svg">
<rect width="35" height="35" rx="4" fill="url(#paint0_linear_270_27)"/>
<g clip-path="url(#clip0_270_27)">
<path d="M22.9308 27.5H12.0692C9.55403 27.5 7.5 25.4413 7.5 22.9308V12.0692C7.5 9.55869 9.55869 7.5 12.0692 7.5H22.9308C25.446 7.5 27.5 9.55869 27.5 12.0692V22.9308C27.5 25.446 25.446 27.5 22.9308 27.5Z" fill="white"/>
<path d="M22.2556 11.5103H12.6795C11.3241 11.5103 10.2202 12.6188 10.2202 13.9695V19.922C10.2202 21.2774 11.3287 22.3812 12.6795 22.3812H16.0609L16.6431 23.3873L17.216 24.3794C17.3185 24.561 17.5793 24.561 17.6864 24.3794L18.2593 23.3873L18.8415 22.3812H22.2603C23.6157 22.3812 24.7195 21.2727 24.7195 19.922V13.9742C24.7195 12.6188 23.611 11.5103 22.2556 11.5103Z" fill="url(#paint1_linear_270_27)"/>
<path d="M18.1383 15.8698C17.3977 15.8698 16.7969 16.4613 16.7969 17.1926C16.7969 17.9238 17.3977 18.5154 18.1383 18.5154C18.8788 18.5154 19.4797 17.9238 19.4797 17.1926C19.4797 16.4613 18.8835 15.8698 18.1383 15.8698ZM18.1383 17.826C17.7843 17.826 17.4955 17.5419 17.4955 17.1926C17.4955 16.8433 17.7843 16.5591 18.1383 16.5591C18.4923 16.5591 18.781 16.8433 18.781 17.1926C18.781 17.5419 18.4969 17.826 18.1383 17.826Z" fill="white"/>
<path d="M13.8951 15.8698C13.6063 15.8698 13.3362 15.9816 13.1266 16.1726V15.078H12.3813V18.4548H13.1266V18.2173C13.3362 18.4036 13.6017 18.52 13.8951 18.52C14.5611 18.52 15.1014 17.9285 15.1014 17.1972C15.1014 16.466 14.5658 15.8698 13.8951 15.8698ZM13.746 17.854C13.4712 17.854 13.2337 17.691 13.1312 17.4534C13.0986 17.3742 13.0753 17.2857 13.0753 17.1926C13.0753 17.0994 13.094 17.0109 13.1312 16.9318C13.2337 16.6942 13.4712 16.5312 13.746 16.5312C14.1187 16.5312 14.4167 16.8246 14.4167 17.1926C14.4167 17.5605 14.1187 17.854 13.746 17.854Z" fill="white"/>
<path d="M21.8038 15.9257V16.1353C21.5942 15.9723 21.3333 15.8745 21.0539 15.8745C20.3692 15.8745 19.8149 16.4474 19.8149 17.1507C19.8149 17.854 20.3692 18.4269 21.0539 18.4269C21.338 18.4269 21.5988 18.3291 21.8038 18.1661V18.52C21.8038 18.52 21.7292 18.8694 21.2076 18.8694V19.5261C21.2076 19.5261 21.7712 19.5913 22.2742 19.0883C22.2742 19.0883 22.5071 18.8414 22.5583 18.5154V15.9257H21.8038ZM21.1936 17.7981C20.8163 17.7981 20.5136 17.5047 20.5136 17.146C20.5136 16.7874 20.821 16.494 21.1936 16.494C21.4591 16.494 21.692 16.643 21.8038 16.8572C21.8503 16.9457 21.8736 17.0436 21.8736 17.146C21.8736 17.2485 21.8457 17.351 21.8038 17.4348C21.692 17.6537 21.4591 17.7981 21.1936 17.7981Z" fill="white"/>
<path d="M15.1851 15.0128V15.6882C15.1851 15.6882 15.5297 15.7347 15.5949 16.0701V18.4548H16.3634V16.0701V16.0515C16.3169 15.7161 16.1166 15.4646 16.1166 15.4646C15.6788 14.9476 15.1851 15.0128 15.1851 15.0128Z" fill="white"/>
</g>
<defs>
<linearGradient id="paint0_linear_270_27" x1="17.4979" y1="34.9974" x2="17.4979" y2="0.00352082" gradientUnits="userSpaceOnUse">
<stop stop-color="#00D44D"/>
<stop offset="1" stop-color="#00E56D"/>
</linearGradient>
<linearGradient id="paint1_linear_270_27" x1="17.469" y1="24.5146" x2="17.469" y2="11.5116" gradientUnits="userSpaceOnUse">
<stop stop-color="#00D44D"/>
<stop offset="1" stop-color="#00E56D"/>
</linearGradient>
<clipPath id="clip0_270_27">
<rect width="20" height="20" fill="white" transform="translate(7.5 7.5)"/>
</clipPath>
</defs>
</svg>
