<svg width="35" height="35" viewBox="0 0 35 35" fill="none" xmlns="http://www.w3.org/2000/svg">
<rect width="35" height="35" rx="4" fill="#CCCCCC" fill-opacity="0.8"/>
<g clip-path="url(#clip0_270_56)">
<path d="M22.9308 27.5H12.0692C9.55403 27.5 7.5 25.4413 7.5 22.9308V12.0692C7.5 9.55869 9.55869 7.5 12.0692 7.5H22.9308C25.446 7.5 27.5 9.55869 27.5 12.0692V22.9308C27.5 25.446 25.446 27.5 22.9308 27.5Z" fill="white"/>
<path d="M22.2551 11.5103H12.679C11.3236 11.5103 10.2197 12.6188 10.2197 13.9695V19.922C10.2197 21.2774 11.3282 22.3812 12.679 22.3812H16.0604L16.6426 23.3873L17.2155 24.3794C17.318 24.561 17.5788 24.561 17.686 24.3794L18.2589 23.3873L18.8411 22.3812H22.2598C23.6152 22.3812 24.719 21.2727 24.719 19.922V13.9742C24.719 12.6188 23.6105 11.5103 22.2551 11.5103Z" fill="#D6D6D6"/>
<path d="M18.1373 15.8698C17.3967 15.8698 16.7959 16.4613 16.7959 17.1926C16.7959 17.9238 17.3967 18.5154 18.1373 18.5154C18.8779 18.5154 19.4787 17.9238 19.4787 17.1926C19.4787 16.4613 18.8825 15.8698 18.1373 15.8698ZM18.1373 17.826C17.7833 17.826 17.4945 17.5419 17.4945 17.1926C17.4945 16.8433 17.7833 16.5591 18.1373 16.5591C18.4913 16.5591 18.7801 16.8433 18.7801 17.1926C18.7801 17.5419 18.4959 17.826 18.1373 17.826Z" fill="white"/>
<path d="M13.8946 15.8698C13.6058 15.8698 13.3357 15.9816 13.1261 16.1726V15.078H12.3809V18.4548H13.1261V18.2173C13.3357 18.4036 13.6012 18.52 13.8946 18.52C14.5606 18.52 15.1009 17.9285 15.1009 17.1972C15.1009 16.466 14.5653 15.8698 13.8946 15.8698ZM13.7456 17.854C13.4708 17.854 13.2332 17.691 13.1307 17.4534C13.0981 17.3742 13.0749 17.2857 13.0749 17.1926C13.0749 17.0994 13.0935 17.0109 13.1307 16.9318C13.2332 16.6942 13.4708 16.5312 13.7456 16.5312C14.1182 16.5312 14.4163 16.8246 14.4163 17.1926C14.4163 17.5605 14.1182 17.854 13.7456 17.854Z" fill="white"/>
<path d="M21.8033 15.9257V16.1353C21.5937 15.9723 21.3329 15.8745 21.0534 15.8745C20.3687 15.8745 19.8145 16.4474 19.8145 17.1507C19.8145 17.854 20.3687 18.4269 21.0534 18.4269C21.3375 18.4269 21.5983 18.3291 21.8033 18.1661V18.52C21.8033 18.52 21.7288 18.8694 21.2071 18.8694V19.5261C21.2071 19.5261 21.7707 19.5913 22.2737 19.0883C22.2737 19.0883 22.5066 18.8414 22.5578 18.5154V15.9257H21.8033ZM21.1931 17.7981C20.8159 17.7981 20.5131 17.5047 20.5131 17.146C20.5131 16.7874 20.8205 16.494 21.1931 16.494C21.4586 16.494 21.6915 16.643 21.8033 16.8572C21.8499 16.9457 21.8731 17.0436 21.8731 17.146C21.8731 17.2485 21.8452 17.351 21.8033 17.4348C21.6915 17.6537 21.4586 17.7981 21.1931 17.7981Z" fill="white"/>
<path d="M15.1846 15.0128V15.6882C15.1846 15.6882 15.5292 15.7347 15.5944 16.0701V18.4548H16.363V16.0701V16.0515C16.3164 15.7161 16.1161 15.4646 16.1161 15.4646C15.6783 14.9476 15.1846 15.0128 15.1846 15.0128Z" fill="white"/>
</g>
<defs>
<clipPath id="clip0_270_56">
<rect width="20" height="20" fill="white" transform="translate(7.5 7.5)"/>
</clipPath>
</defs>
</svg>
