<svg width="35" height="35" viewBox="0 0 35 35" fill="none" xmlns="http://www.w3.org/2000/svg">
<rect width="35" height="35" rx="4" fill="#CCCCCC" fill-opacity="0.8"/>
<g clip-path="url(#clip0_270_262)">
<path d="M27.5 17.5C27.5 11.9771 23.0229 7.5 17.5 7.5C11.9771 7.5 7.5 11.9771 7.5 17.5C7.5 22.4912 11.1568 26.6283 15.9375 27.3785V20.3906H13.3984V17.5H15.9375V15.2969C15.9375 12.7906 17.4305 11.4063 19.7146 11.4063C20.8084 11.4063 21.9531 11.6016 21.9531 11.6016V14.0625H20.6922C19.45 14.0625 19.0625 14.8334 19.0625 15.625V17.5H21.8359L21.3926 20.3906H19.0625V27.3785C23.8432 26.6283 27.5 22.4912 27.5 17.5Z" fill="white"/>
<path d="M21.3926 20.3906L21.8359 17.5H19.0625V15.625C19.0625 14.8342 19.45 14.0625 20.6922 14.0625H21.9531V11.6016C21.9531 11.6016 20.8088 11.4062 19.7146 11.4062C17.4305 11.4062 15.9375 12.7906 15.9375 15.2969V17.5H13.3984V20.3906H15.9375V27.3785C16.9729 27.5405 18.0271 27.5405 19.0625 27.3785V20.3906H21.3926Z" fill="#D6D6D6"/>
</g>
<defs>
<clipPath id="clip0_270_262">
<rect width="20" height="20" fill="white" transform="translate(7.5 7.5)"/>
</clipPath>
</defs>
</svg>
