<svg width="35" height="35" viewBox="0 0 35 35" fill="none" xmlns="http://www.w3.org/2000/svg">
<rect width="35" height="35" rx="4" fill="#FC0D1B"/>
<path d="M17.4996 10.5315C19.9028 10.5315 20.1872 10.5402 21.1364 10.5811C22.0138 10.6189 22.4903 10.7572 22.8075 10.8736C23.2277 11.0278 23.5274 11.212 23.8425 11.5093C24.1576 11.8068 24.3526 12.0899 24.5155 12.4867C24.6388 12.7863 24.7852 13.2364 24.8253 14.0651C24.8685 14.9612 24.8778 15.2301 24.8778 17.4998C24.8778 19.7695 24.8685 20.0381 24.8253 20.9346C24.7852 21.7632 24.6388 22.2133 24.5155 22.5129C24.3523 22.9097 24.1572 23.1928 23.8425 23.4904C23.5274 23.788 23.2277 23.9722 22.8075 24.1261C22.4903 24.2425 22.0138 24.3808 21.1364 24.4186C20.1875 24.4594 19.9028 24.4682 17.4996 24.4682C15.0965 24.4682 14.8118 24.4594 13.8629 24.4186C12.9855 24.3808 12.509 24.2425 12.1917 24.1261C11.7716 23.9719 11.4719 23.7877 11.1568 23.4904C10.8417 23.1928 10.6467 22.9097 10.4838 22.5129C10.3605 22.2133 10.214 21.7632 10.174 20.9346C10.1308 20.0384 10.1215 19.7695 10.1215 17.4998C10.1215 15.2301 10.1308 14.9616 10.174 14.0651C10.214 13.2364 10.3605 12.7863 10.4838 12.4867C10.647 12.0899 10.8421 11.8068 11.1568 11.5093C11.4719 11.2117 11.7716 11.0274 12.1917 10.8736C12.509 10.7572 12.9855 10.6189 13.8629 10.5811C14.8121 10.5402 15.0965 10.5315 17.4996 10.5315ZM17.4996 9C15.0554 9 14.7489 9.00978 13.789 9.05129C12.8312 9.09245 12.1771 9.23618 11.6044 9.44638C11.0125 9.66367 10.5106 9.95417 10.0104 10.4269C9.51028 10.8992 9.20234 11.3733 8.97263 11.932C8.75007 12.4729 8.59788 13.0907 8.5543 13.9952C8.51036 14.9018 8.5 15.1913 8.5 17.4998C8.5 19.8083 8.51036 20.0978 8.5543 21.0044C8.59788 21.909 8.75007 22.5268 8.97263 23.0676C9.2027 23.6267 9.51028 24.1008 10.0108 24.5731C10.5113 25.0458 11.0128 25.3363 11.6048 25.5536C12.1771 25.7638 12.8316 25.9076 13.7893 25.9487C14.7492 25.9902 15.0557 26 17.5 26C19.9443 26 20.2508 25.9902 21.2107 25.9487C22.1684 25.9076 22.8229 25.7638 23.3952 25.5536C23.9872 25.3363 24.4891 25.0458 24.9892 24.5731C25.4897 24.1004 25.7973 23.6267 26.0274 23.0676C26.2499 22.5271 26.4021 21.909 26.4457 21.0044C26.4896 20.0978 26.5 19.8083 26.5 17.4998C26.5 15.1913 26.4896 14.9018 26.4457 13.9952C26.4021 13.0907 26.2499 12.4725 26.0274 11.932C25.7973 11.3729 25.4897 10.8989 24.9892 10.4265C24.4887 9.95384 23.9872 9.66333 23.3952 9.44605C22.8222 9.23618 22.1681 9.09245 21.2103 9.05129C20.2504 9.00978 19.9439 9 17.4996 9Z" fill="white"/>
<path d="M21.078 17.2733C21.2434 17.3694 21.2441 17.6079 21.0793 17.7049L15.284 21.1164C15.1176 21.2143 14.9077 21.0947 14.9071 20.9016L14.8863 14.1103C14.8857 13.9172 15.0949 13.7964 15.2619 13.8935L21.078 17.2733Z" stroke="white" stroke-width="1.5"/>
</svg>
