<svg width="35" height="35" viewBox="0 0 35 35" fill="none" xmlns="http://www.w3.org/2000/svg">
<rect width="35" height="35" rx="4" fill="#CCCCCC" fill-opacity="0.8"/>
<path d="M17.5009 7.5C14.7851 7.5 14.4442 7.51188 13.3776 7.56042C12.313 7.60917 11.5863 7.77771 10.9505 8.02501C10.2927 8.28042 9.73481 8.6221 9.17898 9.17814C8.62272 9.73398 8.28105 10.2919 8.0248 10.9494C7.77688 11.5855 7.60813 12.3123 7.56021 13.3765C7.5125 14.4432 7.5 14.7842 7.5 17.5001C7.5 20.216 7.51208 20.5558 7.56042 21.6224C7.60938 22.687 7.77792 23.4137 8.02501 24.0495C8.28063 24.7073 8.6223 25.2652 9.17835 25.821C9.73398 26.3773 10.2919 26.7198 10.9492 26.9752C11.5855 27.2225 12.3123 27.391 13.3767 27.4398C14.4434 27.4883 14.784 27.5002 17.4997 27.5002C20.2158 27.5002 20.5556 27.4883 21.6222 27.4398C22.6868 27.391 23.4143 27.2225 24.0506 26.9752C24.7081 26.7198 25.2652 26.3773 25.8208 25.821C26.3771 25.2652 26.7187 24.7073 26.975 24.0498C27.2208 23.4137 27.3896 22.6868 27.4396 21.6226C27.4875 20.556 27.5 20.216 27.5 17.5001C27.5 14.7842 27.4875 14.4434 27.4396 13.3767C27.3896 12.3121 27.2208 11.5855 26.975 10.9496C26.7187 10.2919 26.3771 9.73398 25.8208 9.17814C25.2646 8.62189 24.7083 8.28022 24.05 8.02501C23.4125 7.77771 22.6854 7.60917 21.6208 7.56042C20.5541 7.51188 20.2145 7.5 17.4978 7.5H17.5009ZM16.6038 9.3021C16.8701 9.30169 17.1672 9.3021 17.5009 9.3021C20.171 9.3021 20.4874 9.31169 21.5418 9.3596C22.5168 9.40419 23.046 9.56711 23.3985 9.70398C23.8652 9.88523 24.1979 10.1019 24.5477 10.4519C24.8977 10.8019 25.1143 11.1352 25.296 11.6019C25.4329 11.954 25.596 12.4832 25.6404 13.4582C25.6883 14.5124 25.6987 14.829 25.6987 17.4978C25.6987 20.1666 25.6883 20.4833 25.6404 21.5374C25.5958 22.5124 25.4329 23.0416 25.296 23.3937C25.1148 23.8604 24.8977 24.1927 24.5477 24.5425C24.1977 24.8925 23.8654 25.1091 23.3985 25.2904C23.0464 25.4279 22.5168 25.5904 21.5418 25.635C20.4876 25.6829 20.171 25.6933 17.5009 25.6933C14.8307 25.6933 14.5142 25.6829 13.4601 25.635C12.4851 25.59 11.9559 25.4271 11.6032 25.2902C11.1365 25.1089 10.8032 24.8923 10.4532 24.5423C10.1032 24.1923 9.88648 23.8598 9.70481 23.3929C9.56794 23.0408 9.40481 22.5116 9.36044 21.5366C9.31252 20.4824 9.30294 20.1658 9.30294 17.4953C9.30294 14.8249 9.31252 14.5099 9.36044 13.4557C9.40502 12.4807 9.56794 11.9515 9.70481 11.599C9.88607 11.1323 10.1032 10.799 10.4532 10.449C10.8032 10.099 11.1365 9.88232 11.6032 9.70065C11.9557 9.56315 12.4851 9.40065 13.4601 9.35585C14.3826 9.31419 14.7401 9.30169 16.6038 9.2996V9.3021ZM22.8389 10.9625C22.1764 10.9625 21.6389 11.4994 21.6389 12.1621C21.6389 12.8246 22.1764 13.3621 22.8389 13.3621C23.5014 13.3621 24.0389 12.8246 24.0389 12.1621C24.0389 11.4996 23.5014 10.9621 22.8389 10.9621V10.9625ZM17.5009 12.3646C14.6649 12.3646 12.3655 14.664 12.3655 17.5001C12.3655 20.3362 14.6649 22.6345 17.5009 22.6345C20.337 22.6345 22.6356 20.3362 22.6356 17.5001C22.6356 14.664 20.3368 12.3646 17.5007 12.3646H17.5009ZM17.5009 14.1667C19.3418 14.1667 20.8343 15.659 20.8343 17.5001C20.8343 19.341 19.3418 20.8335 17.5009 20.8335C15.6599 20.8335 14.1676 19.341 14.1676 17.5001C14.1676 15.659 15.6599 14.1667 17.5009 14.1667Z" fill="white"/>
</svg>
